<?xml version="1.0" standalone="no"?>
<!DOCTYPE svg PUBLIC "-//W3C//DTD SVG 1.1//EN" "http://www.w3.org/Graphics/SVG/1.1/DTD/svg11.dtd" >
<svg xmlns="http://www.w3.org/2000/svg">
<metadata></metadata>
<defs>
<font id="soh9slnfaregular" horiz-adv-x="2048" >
<font-face units-per-em="2048" ascent="1744" descent="-304" />
<missing-glyph horiz-adv-x="680" />
<glyph horiz-adv-x="0" />
<glyph horiz-adv-x="682" />
<glyph unicode=" "  horiz-adv-x="680" />
<glyph unicode="&#x09;" horiz-adv-x="680" />
<glyph unicode="&#xa0;" horiz-adv-x="680" />
<glyph unicode="!" horiz-adv-x="640" d="M32 152l40 56h16l96 -120v-56l-32 -32h-40q-80 64 -80 152zM104 552l8 16l-8 144q0 480 88 480q48 -8 112 -152q-112 -592 -152 -592q-24 0 -48 104z" />
<glyph unicode="&#x22;" horiz-adv-x="1128" d="M256 1128v16q16 32 48 32q104 -56 104 -128q-48 -144 -96 -176l-32 24v24l32 128q-56 32 -56 80zM464 1080q8 128 40 128q56 -32 104 -96q-8 -80 -16 -80l8 -8v-8q-48 -152 -120 -152l-8 8v8q48 112 48 152q-16 0 -56 48z" />
<glyph unicode="#" horiz-adv-x="1168" d="M368 432v16q0 16 80 48v96q-24 0 -48 48v24q0 24 72 32q24 56 48 64l64 -56h8l56 8q8 128 24 128h16q48 -32 48 -64l-16 -72l16 -24v-16q-32 -40 -32 -72v-32q24 0 24 -16v-8q-64 -144 -80 -144h-8q-16 0 -32 56h-48q-48 -32 -48 -80l-8 -8h-8q-64 48 -128 72zM528 512 q104 8 104 32v64l-16 16q-48 0 -88 -72v-40z" />
<glyph unicode="$" horiz-adv-x="976" d="M200 776q96 176 280 232v16l-8 152l8 16h16q104 0 104 -144l-24 -104v-24l40 -48q-24 -56 -72 -88h-16l-32 56h-24q-80 0 -128 -88v-40q0 -24 224 -88l32 16q144 -48 144 -88v-24q-136 -168 -176 -168l8 -16v-8q0 -128 -80 -224q-80 32 -80 88h8q0 72 -192 136l-8 8 q0 56 296 96q48 56 48 88h-16q-352 48 -352 248z" />
<glyph unicode="%" horiz-adv-x="1200" d="M232 112v24l200 400q120 168 120 216q-40 -32 -72 -32h-40q-72 56 -72 112h8l-24 64q0 168 256 264q120 0 216 -64q64 0 88 -72v-16q-280 -296 -320 -456q120 0 208 -144v-72q-88 -136 -200 -136l-112 72l-64 -48q-80 -160 -112 -176h-16zM464 840h16l88 24 q-24 48 -48 56h-8q-32 0 -48 -80zM536 320l56 -8h32q64 24 64 112v8h-32q-104 0 -120 -96v-16z" />
<glyph unicode="&#x26;" horiz-adv-x="1536" d="M408 424l8 16h16l-16 16v8q0 192 240 288l40 32q-48 120 -48 200q0 192 80 280h64q104 0 168 -216v-40q-40 -168 -56 -168l8 -16v-8l-80 -104l48 -184h8q88 88 168 296h32q24 0 40 -88l-176 -312q136 -208 136 -256l-32 -24h-32q-136 208 -152 208q-208 -120 -328 -120 q-112 0 -136 192zM520 352l8 -16h64q240 72 240 128q-64 160 -88 160q-200 -136 -200 -168zM760 880h8q40 0 80 200l-8 16q-80 0 -80 -128v-88z" />
<glyph unicode="'" horiz-adv-x="1096" d="M224 368q32 88 56 88h16q144 0 272 -224l-192 -216q-88 0 -104 72q120 24 120 112q-168 96 -168 168z" />
<glyph unicode="(" horiz-adv-x="720" d="M0 384q0 384 272 680l112 72h24q64 -56 64 -152l-112 -56q-184 -176 -216 -352l-8 -16q0 -56 -24 -56l8 -120v-152l-8 -64q0 -144 136 -256v-16l-32 -56q-208 128 -208 424z" />
<glyph unicode=")" horiz-adv-x="720" d="M0 -104q368 320 368 888q0 64 -160 272l-16 80l16 16h8q144 0 264 -408v-32q0 -368 -248 -760h-16l-8 24q-88 -136 -184 -136z" />
<glyph unicode="*" horiz-adv-x="1064" d="M136 712l88 40h136l-40 168v40h40q24 0 120 -152q88 136 112 136q48 -16 64 -64v-16q-56 -72 -56 -120h80l80 -80v-32q-32 -64 -104 -64l-64 8q-64 -24 -72 -64l32 -136l-64 -32q0 40 -48 48q-32 0 -80 -56l-40 -16h-40q-64 56 -64 120q88 40 160 168l-24 40l-8 -16h-16 l-64 16l-72 -16q-56 24 -56 80z" />
<glyph unicode="+" horiz-adv-x="1360" d="M80 720v48l32 32h64l120 -16l120 16h64l48 48v16l-16 64l16 16v24l-16 48h16l-16 16v48l32 32h48q88 -56 88 -144l-16 -136h16l184 16l96 -112v-32q0 -88 -232 -88q0 -40 -48 -80l16 -16v-16l-48 -48l16 -48q-8 -232 -40 -232q-128 0 -176 216v48q32 40 32 112h16 q0 48 -104 64l-64 -16q-184 0 -248 120z" />
<glyph unicode="," horiz-adv-x="640" d="M0 264q32 112 64 112h16q144 0 272 -280l-200 -256q-88 0 -104 96q120 32 120 128q-168 120 -168 200z" />
<glyph unicode="-" horiz-adv-x="1360" d="M56 536v24q0 16 320 24l16 -8l624 16l96 -48v-24q0 -8 -176 -24l-160 16l-200 -8l-24 8h-16l-80 -8l-80 8l-184 -8h-40z" />
<glyph unicode="." horiz-adv-x="640" d="M96 328v16l64 56h16q192 -120 192 -192l-64 -72q-208 48 -208 192z" />
<glyph unicode="/" horiz-adv-x="1080" d="M0 -24q544 1120 672 1208l104 -104v-8q-184 -192 -296 -472q-40 -16 -104 -176q-176 -280 -240 -568l-16 -16h-32l-88 72v64z" />
<glyph unicode="0" horiz-adv-x="1024" d="M0 240q32 192 176 472q192 368 240 368l152 32q280 -88 280 -416q0 -696 -192 -832l-80 -24l-120 24l-8 -24h-16l-88 40l-8 -16h-8q-328 72 -328 376zM88 152q96 -160 240 -160l208 16l8 -16q208 72 208 424l8 16l8 56l-8 16v16l8 16l-8 16l8 80v64l-8 88l8 16 q-88 112 -192 128h-96q-144 -64 -200 -216q-192 -368 -192 -528v-32z" />
<glyph unicode="1" horiz-adv-x="1024" d="M0 0v16l152 120l264 672l56 176l-32 136l144 88q72 0 136 -192l-136 -192h-16l16 -16v-8l-200 -472l-80 -296q64 0 136 -128v-32l-24 -32l-168 16l-80 -16q-168 0 -168 160z" />
<glyph unicode="2" horiz-adv-x="1024" d="M0 56q0 48 408 328q176 128 336 384v64q0 160 -280 184h-16q-120 -56 -160 -152h-8q-56 24 -56 48v56q112 224 240 224q376 -104 376 -448q0 -160 -152 -280l-216 -200q-88 -80 -304 -208v-32h16l368 40l56 -112v-40q0 -32 -24 -32l-96 16l-24 -16v16l-240 -56 q-176 0 -216 176z" />
<glyph unicode="3" horiz-adv-x="1024" d="M0 504v16q0 16 288 112q352 216 352 384q0 32 -80 40l-16 -8h-8l-16 8q-136 -8 -192 -48h-40l-24 24v56q8 48 184 104v-16l16 16h96q128 0 192 -200v-48q0 -176 -216 -296q0 -32 136 -40q136 -72 136 -240q-40 -112 -448 -456l-112 -72h-16q-112 48 -112 136l208 80 q360 320 360 408q-128 8 -128 24q-264 -24 -448 -104q-112 0 -112 120z" />
<glyph unicode="4" horiz-adv-x="1024" d="M0 424q0 200 488 704q0 16 104 56q64 -32 64 -128v-8l-24 -32l-48 16q-64 0 -392 -392q-72 -96 -120 -272q16 -168 96 -168l72 -16q128 0 424 152q48 544 104 824h24q40 -24 40 -104q-80 -448 -80 -688h64q0 40 32 40q64 -40 72 -72v-80l-8 -16v-16q-64 16 -64 32 q-88 -16 -88 -40v-56l-8 -128l8 -48l-32 -144h-40q-32 0 -56 128l32 216l-264 -96l-40 -16v16l-184 -40q-176 72 -176 376z" />
<glyph unicode="5" horiz-adv-x="1024" d="M0 1128l32 32h344q504 -32 504 -104l32 -80v-16q0 -48 -48 -48l-120 64l-568 48q0 -48 -24 -48l16 -16l-40 -248v-88l16 -16v-16q256 136 376 136q368 -88 368 -368v-104q-32 -40 -56 -248l-40 -40v-16l16 -80l-40 -32h-32q-48 24 -48 144v16q104 200 104 424 q0 104 -208 168q-392 -88 -392 -200q-40 0 -40 -48l-8 -16h-64q-40 24 -72 128q40 464 64 504z" />
<glyph unicode="6" horiz-adv-x="1024" d="M0 168q0 312 480 856q176 152 296 152h8l88 -88v-32q0 -32 -40 -32l-88 32q-136 0 -408 -344q-40 -56 -40 -104h200q184 0 376 -464v-64q0 -24 -368 -192q-128 -48 -224 -48h-56q-224 176 -224 328zM96 184q24 -216 184 -216h16l56 8l40 -8q24 24 296 128l72 72 q-88 304 -320 304l-16 -16h-16l-16 16l-112 -32l-96 32v-16z" />
<glyph unicode="7" horiz-adv-x="1024" d="M0 872q16 176 144 176q752 0 752 -88l24 -104q-56 0 -128 -216q40 -56 40 -104q-40 -40 -88 -40q-56 -320 -104 -368q-64 0 -168 -272l-48 -16q-64 32 -64 64v40q48 200 240 392l40 160v40h-16l-88 -24q-104 16 -104 56v16q0 40 216 56q40 0 96 248l-56 32 q-8 -48 -72 -48h-16q-64 0 -128 48q-368 0 -368 -136h-40z" />
<glyph unicode="8" horiz-adv-x="1024" d="M0 136q0 176 264 464v16l-16 40v16q8 184 168 376l120 56h64q104 -16 104 -128q0 -24 -64 -40q-48 16 -48 56h-8q-144 0 -248 -256v-24l32 24l32 -8q0 24 160 120l64 72h24q32 0 64 -136q96 0 184 -256l-16 -56l56 -200v-96l24 -40l-48 -40l-8 8h-8q-496 -248 -640 -264 q-256 88 -256 296zM80 80q64 -120 224 -120h16q112 0 528 232l8 16v80q-40 392 -176 392h-64q-56 0 -200 -136q-336 -248 -336 -464z" />
<glyph unicode="9" horiz-adv-x="1024" d="M0 424v64q0 216 304 528l304 168q176 0 240 -120l-72 -64h-16l-40 48l-184 -48l-8 16q-32 -56 -280 -232l-136 -264l-16 -112q0 -80 96 -152h16q104 0 376 384q112 344 216 344l72 -96v-40q-128 -152 -192 -360l-88 -280l-40 -168l16 -136v-16q0 -32 -72 -48 q-80 80 -80 160l40 272q-160 -168 -208 -168q-248 112 -248 320z" />
<glyph unicode=":" horiz-adv-x="640" d="M0 -8l64 40h16l144 -112v-32l-64 -48h-40q-32 0 -120 128v24zM40 384v40l40 32h64q160 -96 160 -184l-40 -24h-64z" />
<glyph unicode=";" horiz-adv-x="640" d="M0 -88l16 16v8l80 -8q200 24 200 152v32q-128 136 -128 176l48 24l232 -232q0 -200 -296 -240q-152 24 -152 56v16zM200 624l48 24q88 0 184 -104v-48q0 -24 -48 -24q-184 40 -184 152z" />
<glyph unicode="&#x3c;" horiz-adv-x="1360" d="M0 424v56l768 672h56q104 -48 104 -208q0 -48 -320 -232q-216 -256 -288 -256q0 -80 400 -176q144 0 344 -320l-104 -120h-32q-72 136 -712 352q-80 0 -216 232z" />
<glyph unicode="=" horiz-adv-x="1360" d="M16 512q0 16 456 72l16 -8l168 24q424 0 424 -160q-64 -32 -152 -32l-16 8l-16 -8h-24l-96 24l-408 -16l-16 16h-16l-48 -16l-72 16l-80 -24q-120 32 -120 104zM168 784l64 40l496 8v-8l48 8l16 -8l80 8h120q120 -72 120 -128l-88 -40l-48 24l-16 -8h-32l-16 8l-16 -8 h-56q-80 0 -80 24l-16 -16h-56l-16 16l-16 -16h-16l-152 16l-48 -16l-16 16h-24l-48 -16v16l-16 -16h-80q-88 32 -88 96z" />
<glyph unicode="&#x3e;" horiz-adv-x="1360" d="M0 848l48 40h56q400 -224 800 -384q104 -112 104 -168q-200 -24 -440 -232l-280 -264h-80l-128 136q0 168 152 168l360 304q-592 264 -592 400z" />
<glyph unicode="?" horiz-adv-x="976" d="M0 784v88q248 160 488 160q120 0 376 -216q-144 -480 -432 -488q-160 96 -160 184q184 56 296 288q0 72 -112 72v16q-152 -16 -296 -104h-160zM136 56l104 80l192 -160v-64l-104 -72q-176 48 -192 88v128z" />
<glyph unicode="@" horiz-adv-x="1088" d="M56 456v8q0 336 280 576l120 40q512 -88 512 -472q-104 -368 -272 -368q-24 0 -160 120h-24q0 -80 -160 -104q-152 88 -152 200q72 272 232 272h16l120 -120v-8l-32 -40v-16q96 -40 96 -144h24v-16q192 88 192 304v56q0 88 -200 168q0 32 -160 40h-32 q-192 -136 -264 -384v-24h-16l16 -16v-8l-32 -80l16 -56h-16q0 -104 168 -248l128 -24l192 56h8l32 -32q-136 -104 -272 -128q-360 136 -360 448zM336 416h16q56 0 160 144h-16q-160 -16 -160 -144z" />
<glyph unicode="A" horiz-adv-x="1512" d="M0 -56q280 352 320 472q-152 96 -152 208v16q40 136 128 136h16q72 0 168 -88q144 336 336 520h24l64 -56v-16q-144 -472 -160 -576q32 0 64 -64v-16q-40 -56 -120 -112l-8 -80l8 -56h-8l8 -8l-32 -136l8 -8v-8q-8 -128 -40 -128h-16q-48 32 -48 96q0 96 32 232l-24 136 q-144 -24 -216 -72l8 -8v-16l-112 -184l-80 -144q-8 -48 -112 -144h-8q-48 32 -48 96v8zM272 544q40 -48 96 -48h8l64 136q-64 32 -104 32h-16q-48 -32 -48 -80v-40zM464 488l40 -8l24 8q-16 64 -32 64q-24 0 -32 -64zM536 616l72 -120h32l96 424v24q-88 -88 -200 -328z" />
<glyph unicode="B" horiz-adv-x="1424" d="M0 0q256 456 280 632l-8 56l8 8h32l32 -16q184 288 376 472l64 24h16q136 -112 136 -224v-72q0 -176 -96 -256q0 -32 -112 -192v-16q48 0 112 -152v-56q-192 -208 -400 -368h-96l-56 56v8q280 152 416 368v24q0 24 -48 32l-216 -168l-72 -24q-56 72 -56 104 q72 128 216 192q112 0 296 416l8 104v8l-8 80h-56q-64 0 -64 -64q-96 -72 -256 -352q-24 -24 -128 -328q-80 -136 -192 -376l-48 -32h-16q-24 0 -64 112z" />
<glyph unicode="C" horiz-adv-x="1352" d="M0 96q72 312 640 832q296 232 384 232q48 -8 104 -128v-48l-16 -8v-16l-64 16h-40q-24 -32 -224 -88q0 -40 -144 -160q-144 -128 -224 -224q-40 -8 -176 -264q-56 0 -112 -184q32 -32 176 -40q128 0 536 136q80 -112 80 -168q-496 -144 -608 -144l-40 16l-32 -16 q-128 32 -216 160z" />
<glyph unicode="D" horiz-adv-x="1248" d="M0 0q64 96 304 1056l64 72q0 40 32 40q24 -64 48 -72v16l-24 120l16 16l8 -16h16l16 16h8l40 -16l32 56h8q0 -24 64 -24l136 -112q0 -32 360 -416q64 -88 64 -136v-16q-200 -248 -688 -584l-240 -128h-24l-56 40q-16 0 -40 -56l-8 -16h-56q-32 0 -80 160zM240 72h8 q184 80 256 176q32 0 104 80q384 248 384 368q-296 320 -384 320q0 -24 -48 -24q0 -48 -80 -112q0 -56 -136 -392l-56 -176l16 -8v-16l-64 -208v-8zM504 824v56h40v-24l-24 -32h-16z" />
<glyph unicode="E" horiz-adv-x="1208" d="M0 0v8l448 432q32 0 64 104q184 120 288 400h-8l-216 -24q-48 72 -48 152q0 32 440 88l112 -128v-16q-80 -64 -152 -224q-32 -8 -104 -144h168q128 0 160 -128q-24 -56 -88 -56h-88l-8 16l-16 -16h-16l-8 16h-16l-112 -24v8q-144 -40 -424 -288q-48 0 -48 -80 q-80 -24 -128 -96h24l656 120l32 -48v-56q0 -16 -96 -32l-24 -24l-16 16q0 -24 -272 -64l-144 -56l-8 16h-16q-48 -32 -136 -32h-16q-168 0 -168 144z" />
<glyph unicode="F" horiz-adv-x="1216" d="M0 -64q32 312 552 1096l-56 32l-136 -16q-224 0 -224 104v8l168 16l112 -8l80 8l16 -8q288 16 328 32q120 0 232 -144q-40 -24 -192 -24q-272 -216 -368 -392h464q32 0 112 -80v-24q0 -32 -344 -32l-96 8l-112 -8l-80 40h-16q-120 -88 -248 -576v-96l-56 -32h-24 q-112 40 -112 96z" />
<glyph unicode="G" horiz-adv-x="1320" d="M0 328q48 304 568 760q176 120 264 120h24q120 0 192 -184v-8q0 -24 -40 -24q-112 0 -152 64h-40q-216 -72 -456 -368v-16l88 16l8 -16l16 16h24l8 -16l16 16l144 -24q320 8 392 40h48q56 0 88 -144l-24 -24l-88 8h-48l-80 -88q0 -104 -96 -160q-96 -176 -96 -320l8 -112 l-32 -24h-24q-56 0 -88 216l16 48l-16 16h-8q-136 -56 -240 -64v8l-16 -8q-152 0 -288 128q-72 112 -72 144zM120 288q0 -88 264 -96q152 0 312 128q40 112 96 192v16l-456 -40l-104 40z" />
<glyph unicode="H" horiz-adv-x="1304" d="M0 792q64 192 200 192q88 0 88 136l16 16h24q96 -96 96 -152l-16 -8v-16q104 0 304 -224q24 -48 48 -56q112 424 208 544h16l80 -104v-8l-176 -440l-16 -80h8l360 96v-16q0 -96 -240 -184q-136 -48 -136 -128q-88 -520 -144 -520h-32q-16 0 -56 152q0 104 56 416h-8 l-120 -24l-152 24l-24 -16l-40 24q-112 -8 -112 -32l-88 -448l-16 -16h-16q-80 0 -80 128q0 96 96 440q-128 200 -128 304zM120 680l40 -48l40 160h-8q-72 -40 -72 -112zM280 576l160 -40l8 8l72 -8h8l64 8l8 -8l48 8h72v32q-144 208 -336 264h-24z" />
<glyph unicode="I" horiz-adv-x="744" d="M0 40q24 32 280 88q72 48 72 112q0 240 80 688h-8l-88 -56q-64 64 -64 216q0 40 344 112l72 -200v-16q0 -32 -104 -128q-88 -216 -88 -272l-40 -288v-128h200q24 0 40 -144q0 -24 -208 -88l-64 16q0 -72 -352 -112h-24q-48 88 -48 200z" />
<glyph unicode="J" horiz-adv-x="944" d="M0 -8q56 128 80 128h32q96 -72 96 -144l16 -16q224 0 448 192l32 48v16l-64 424l64 352h-48q-104 -24 -272 -144l-16 -16h-16q-80 0 -128 120v8q312 208 688 248l144 -96v-8q0 -24 -64 -24l-112 -200l-48 -240l16 -8v-8l-16 -64v-16q0 -104 80 -360q0 -120 -256 -264 l-64 -8l-48 8v-8q0 -40 -192 -72h-80q-272 56 -272 152z" />
<glyph unicode="K" horiz-adv-x="912" d="M0 -24q240 936 376 1192l16 8h24l104 -72v-32q-64 0 -184 -392q200 192 304 192q128 0 168 -144q-24 -160 -264 -384q-24 0 -104 -72q280 -232 528 -352l32 -32v-8l-48 -40h-32q-440 288 -584 408h-48q-40 0 -96 -200q-24 -144 -112 -144h-8q-24 0 -72 56v16zM288 384 l56 -40q344 176 344 432l-8 8h-16l-40 -8l-16 8q-248 -192 -248 -248q-48 -56 -72 -152z" />
<glyph unicode="L" horiz-adv-x="848" d="M0 40q192 96 480 856h-8q-32 16 -32 64l128 88q56 160 176 160h8l96 -104q0 -24 -176 -184q-296 -600 -400 -784q-64 -64 -64 -104h136l232 -32h32q40 120 64 120q64 -72 64 -96q-32 -184 -96 -184l-304 72l-88 -24q-248 0 -248 152z" />
<glyph unicode="M" horiz-adv-x="1224" d="M0 56l256 616l-8 16v48q8 48 96 80q48 128 168 176h16q88 -104 104 -240l200 416h24q48 -40 88 -144q0 -208 -16 -208l8 -8v-16q-16 0 -40 -400v-96l8 -160h24q24 8 104 224h8q40 -64 40 -144q-72 -120 -72 -216l-8 -8l8 -56q-16 -80 -48 -96h-32q-144 248 -144 600 l8 272v16h-8l-176 -496q-24 -136 -88 -136l-64 136l40 520h-8q-40 0 -192 -432q-176 -376 -208 -392l-24 -16z" />
<glyph unicode="N" horiz-adv-x="1032" d="M0 -32q0 48 184 680l64 80q0 40 24 40h16l56 -56q0 32 40 56q96 -72 96 -144v-256l-16 -8q16 -136 48 -136h8q200 360 312 744q40 48 40 96q48 128 96 136q48 0 80 -136v-16q-96 -152 -280 -696l-56 -200l24 -176l-80 -64q-32 0 -128 64l-40 -8q-48 0 -112 336l-24 144 q-72 -88 -240 -536h-8l8 -16v-16l-32 -40h-32q-24 0 -48 112v16z" />
<glyph unicode="O" horiz-adv-x="1200" d="M0 40q16 376 344 936q216 216 312 216q224 0 360 -296l32 -120q-104 -392 -280 -528q-176 -312 -376 -312q-88 -96 -160 -96l-40 16l-48 -16h-8q-80 72 -136 200zM120 40l16 -16h40q328 0 680 592l72 264q0 48 -216 112h-24q-88 0 -88 -96q0 -24 -120 -120l-48 8 q-168 -224 -232 -496q-40 -56 -80 -248z" />
<glyph unicode="P" horiz-adv-x="1088" d="M0 -40q184 752 264 1240l16 8h48l104 -56l144 24h136q168 0 280 -216q-112 -320 -384 -480q-176 -120 -248 -120l-80 8l-16 -8v-136l-80 -296l16 -48l-64 -40h-24q-56 32 -112 96v24zM312 552l16 -40q464 264 464 520l-48 24h-16q0 -48 -184 -48l-16 -16 q-144 -32 -144 -216z" />
<glyph unicode="Q" horiz-adv-x="1272" d="M0 72q128 560 264 792q128 216 176 216l136 88l104 24h48q248 0 376 -264q-16 -192 -264 -528l-160 -192q0 -24 152 -88q96 -104 96 -160l-32 -24h-48l-216 144l-8 -8l-64 8q-32 0 -144 -136q-144 -104 -240 -104q-176 72 -176 232zM104 8l56 -24q88 0 304 160v16 l-248 168h-32q-40 0 -80 -320zM232 456q168 -136 328 -208q440 464 440 680q0 80 -216 120v16q-168 -32 -200 -88q-104 -144 -120 -144q-104 0 -232 -376z" />
<glyph unicode="R" horiz-adv-x="1112" d="M0 16q112 328 264 936l16 16h24l112 -72q328 336 408 360q96 0 192 -160l-8 -16l8 -64v-96q0 -256 -192 -416q-104 -192 -184 -200v-24q192 -200 256 -200q24 56 56 64q48 0 56 -152h-16l40 -72q-32 -80 -96 -80q-376 416 -544 416l-88 32v-8l-120 -376l-16 -8h-32 q-136 24 -136 120zM376 456q0 -24 128 -64q360 296 360 640l-16 40q-216 -152 -280 -296q-192 -160 -192 -296v-24z" />
<glyph unicode="S" horiz-adv-x="1152" d="M0 -48q56 64 200 64l520 176v24q-168 0 -400 232q-80 128 -80 248q0 248 232 456q104 80 168 80h96q112 0 256 -232v-24l-32 -40h-64q0 -96 -184 -152l-16 16v8q152 160 152 240l-112 64h-16q-232 -80 -248 -176q-72 -104 -120 -240l16 -16l-16 -56v-48q0 -200 512 -280 q96 -88 96 -128q-32 -40 -408 -168l-8 16h-16q0 -24 -336 -136h-16l-8 8h-16q-16 -48 -80 -48h-16q-56 32 -56 96v16z" />
<glyph unicode="T" horiz-adv-x="1072" d="M0 968q0 32 656 168l328 32q112 -96 112 -152v-16l-48 -40l-48 24q-216 -40 -216 -96q-168 -192 -312 -640l-48 -208v-32l32 -136l-48 -32h-32q-64 32 -112 144q64 296 312 960h-16l-264 -56v8l-80 -40h-56q-160 0 -160 112z" />
<glyph unicode="U" horiz-adv-x="1224" d="M0 208v72q176 848 264 848h16l128 -168q-216 -568 -216 -640l-16 -152v-16q0 -56 200 -88q240 0 512 696q64 440 120 440q144 -144 144 -200q-48 -224 -72 -224l16 -16q-88 -424 -88 -608l16 -112l-48 -32h-56q-56 16 -88 184h-32q-72 -224 -304 -352h-16l-88 24l-16 -24 h-8q-240 0 -368 368z" />
<glyph unicode="V" horiz-adv-x="1160" d="M0 792l48 24q128 0 184 -608q8 -136 48 -136q176 152 528 672q144 160 144 216l-56 224v16l48 48h8q120 0 224 -248v-40l-368 -496q-40 0 -40 -40q-304 -456 -416 -568l-88 -16q-192 200 -192 656z" />
<glyph unicode="W" horiz-adv-x="1368" d="M0 240q0 328 112 760h32l144 -184v-40q-64 0 -128 -576v-40q120 0 352 696l144 304h32q80 -88 112 -184q-80 -464 -80 -696l8 -24h88q328 352 328 720l16 80l-16 24h-8l-64 -24q-64 0 -112 144q0 176 112 176h32q200 -168 200 -496q0 -216 -128 -424q0 -176 -304 -456 l-96 -16q-128 0 -216 432h-32q-176 -448 -224 -512l-104 -40v16l-72 -40q-128 216 -128 400z" />
<glyph unicode="X" horiz-adv-x="1128" d="M0 48q224 192 496 608v16l-288 456v32l40 32h48q136 -96 288 -424h32q200 328 408 488h16l88 -128v-32l-424 -472q48 -232 176 -408v-48q0 -32 -104 -48l-160 240q-168 -104 -408 -448q0 -72 -48 -72h-56q-104 80 -104 208z" />
<glyph unicode="Y" horiz-adv-x="1056" d="M0 1176v16l16 16h48q160 -104 160 -336l72 -192h16q72 24 336 328q56 24 144 144q144 112 248 152q128 -48 128 -152q-128 0 -328 -184q-400 -336 -400 -392q-40 -128 -96 -648l16 -32l-48 -56h-24q-56 24 -96 104l48 296v120q0 88 -240 816z" />
<glyph unicode="Z" horiz-adv-x="1224" d="M0 -32q0 104 208 296q248 264 248 296q-80 104 -80 152v16q0 24 48 24l144 -64l296 408l-120 8q-160 -16 -208 -56q-128 16 -128 112v16q0 48 416 80h200q96 -64 128 -160q-168 -88 -328 -320l-144 -136l112 -184v-48l-32 -24h-48l-144 96h-16q-248 -256 -408 -488h32 q688 24 688 64q144 0 208 -88v-56l-32 -24h-16l-128 24h-168l-112 16q0 -48 -472 -88q-104 32 -144 112v16z" />
<glyph unicode="[" horiz-adv-x="744" d="M0 -96q56 248 56 352v96l-8 136l32 528l-24 112q0 32 248 48q32 0 104 -104v-16q0 -16 -56 -32l-72 16q-104 0 -104 -296l-32 -104v-112l-8 -40l8 -56v-232l-24 -240h192q64 0 104 -80l-32 -40h-24l-8 16l-16 -16h-8l-72 16l-88 -16l-8 16h-16l-8 -16h-16q-72 8 -120 64z " />
<glyph unicode="\" horiz-adv-x="1080" d="M0 1128l24 32q152 0 320 -672q192 -416 248 -608l-56 -40q-96 0 -152 288l-368 984z" />
<glyph unicode="]" horiz-adv-x="744" d="M0 -72q0 40 184 64l136 80l24 176v600l32 232l-16 16h-16l-208 -16l-56 56v24q0 48 200 48h208q80 -40 80 -104q-80 0 -112 -288v-40l-16 -8l16 -16v-112l-16 -48l16 -32h-16l16 -16v-40l-16 -16l16 -32l16 -272q0 -224 -96 -224q-80 -56 -264 -120q-96 32 -112 72v16z " />
<glyph unicode="^" horiz-adv-x="680" d="M88 1056q152 112 184 152q0 16 40 16q72 -48 160 -200v-8l-32 -16q-24 0 -128 128l-104 -120l-56 -16h-16q-48 24 -48 64z" />
<glyph unicode="_" horiz-adv-x="1024" d="M104 544v56q0 16 336 40l408 56q112 -16 112 -96l-16 -16h-24l-224 -16v8l-264 -40v8q-40 -16 -312 -24z" />
<glyph unicode="`" horiz-adv-x="680" d="M0 72v16l64 64h16q192 -144 192 -224l-64 -88q-208 56 -208 232z" />
<glyph unicode="a" horiz-adv-x="848" d="M0 128q0 392 248 680h48q56 0 184 -168l56 64h40l64 -96v-40q0 -72 -40 -136l8 -80q24 0 120 168h8q48 -32 48 -88q0 -208 -120 -320h-88l-96 88q-120 -360 -296 -360q-184 128 -184 288zM144 80l16 -40q128 0 272 432q-48 136 -120 136q-168 -192 -168 -528z" />
<glyph unicode="b" horiz-adv-x="824" d="M0 64l120 536l-16 88q168 520 240 600h16l184 -136v-32l-64 -40l24 -16v-16l-104 -256l24 -8l-24 -80v-40q272 -112 320 -208q40 0 64 -184l-40 -56l16 -16q-104 -344 -280 -344l-16 -16h-24q-136 0 -416 176zM240 -8l64 -16q280 88 280 432l-80 32q-240 -144 -240 -408z " />
<glyph unicode="c" horiz-adv-x="832" d="M0 160v16q0 632 544 632q144 -40 144 -80v-56l-40 -40h-24l-16 16q-392 -160 -392 -272l-40 -40l16 -64l-16 -112v-40q0 -48 216 -80q176 24 232 80h40l40 -40v-40q-32 -72 -272 -200q-432 96 -432 320z" />
<glyph unicode="d" horiz-adv-x="872" d="M0 16v40q144 512 296 512h24q80 -56 80 -80v-40q0 -48 -168 -88q-64 -48 -136 -320l16 -32l-16 -8l88 -32q96 0 256 408l24 136l-16 16q0 152 200 696q40 64 64 64q32 0 80 -88v-40l-112 -384q-32 0 -32 -120q-32 -24 -64 -168l-8 -16l-24 -32l8 -16v-16l-8 -8v-16l8 -8 l-8 -64q0 -128 184 -192v-24q-16 -56 -32 -56h-32q-64 0 -200 168h-8q-136 -368 -280 -368h-16q-104 0 -168 176z" />
<glyph unicode="e" horiz-adv-x="856" d="M0 128q0 184 240 600l152 88h96q80 0 168 -240q-56 -208 -136 -264q-184 -112 -352 -152l-48 -104q152 -56 232 -56q152 0 320 96h56l32 -24q-128 -152 -424 -232q-336 64 -336 288zM200 344q304 96 304 288q-128 0 -304 -272v-16z" />
<glyph unicode="f" horiz-adv-x="656" d="M-152 -160q0 104 240 176h24q24 0 32 -40q-168 -88 -168 -96l-32 -80q24 -32 48 -32q200 0 360 272l64 264h-8l-168 -16l-48 48v32q248 16 248 24q112 488 184 672q80 80 104 80h24q160 -72 160 -192l32 -48l-24 -40l24 -40q-56 -120 -112 -120q-88 -80 -136 -80l-16 8 v16q160 112 160 272l-32 112h-48q-104 -72 -216 -560q-24 -32 -24 -88h16q136 0 272 48l24 -24v-16q-40 -48 -296 -96q-72 0 -96 -208l-8 -8l40 -56q0 -32 -96 -136q-144 -176 -312 -176l-8 -8h-16q-128 0 -192 96v40z" />
<glyph unicode="g" horiz-adv-x="912" d="M-176 -168q72 256 496 504q120 24 120 64l-8 40l-80 -72h-48q-56 48 -88 128v24q0 152 176 352h40q128 -48 128 -160l24 -72v-16l-48 -176v-24h16q72 0 72 24q0 184 112 184h32q64 -32 64 -104q-32 -88 -88 -128q0 -48 -136 -120q0 -40 -16 -40l-96 24l-8 -8l8 -16v-8 q-72 -440 -152 -440q-112 -144 -344 -144q-176 64 -176 168v16zM-80 -232q24 -24 104 -32q168 0 320 216q72 160 72 352q-40 0 -304 -200q-192 -208 -192 -336zM344 552q48 24 120 136h-16q-56 0 -104 -128v-8z" />
<glyph unicode="h" horiz-adv-x="800" d="M0 -56q120 232 232 616h-24q0 -72 -48 -72h-72l-72 64q336 192 336 368q120 312 144 312h48q80 -56 112 -112v-56q0 -40 -200 -296q0 -48 -152 -312l-96 -256h8q168 168 240 168q88 -32 88 -112l-16 -160l40 -8l168 88h24l16 -16v-64l-176 -136q-88 0 -192 112v128 q-144 -56 -248 -328l-104 -32q-56 56 -56 104z" />
<glyph unicode="i" horiz-adv-x="592" d="M0 56v32q0 96 232 280h72l64 -64v-120l-32 -48v-64l144 152l32 -24v-64q-160 -296 -192 -296h-40q-48 24 -104 144l72 232h-16l-176 -160h-56zM232 784v32l32 32q80 0 160 -152v-48h-32q-128 40 -160 136z" />
<glyph unicode="j" horiz-adv-x="568" d="M-32 72l48 48q48 -32 96 -240l72 -16h16q344 64 344 416v40l16 16l-16 16v104l-8 192q-96 0 -96 40v16q80 120 104 120h32l112 -96l-32 -352l16 -56q-16 -416 -128 -416q0 -80 -280 -176q-280 80 -280 288zM560 904v24l48 40l128 -104v-40l-32 -24h-32z" />
<glyph unicode="k" horiz-adv-x="752" d="M-48 -112q40 72 128 408l-24 136q56 0 152 472q56 216 88 216q88 -72 88 -160q-80 -56 -192 -432l16 -72q120 0 344 336l48 8l48 -80v-16q0 -104 -248 -304q-64 -88 -64 -128q112 -112 288 -128l40 40h24q40 -16 40 -88v-24l-80 -88q-200 48 -312 144l-80 24 q-104 -152 -136 -280l-80 -120h-40q-48 24 -48 136zM128 152l40 48v40h-24z" />
<glyph unicode="l" horiz-adv-x="696" d="M0 -40q48 144 152 144l88 -24q104 200 136 408l16 152v8q-40 0 -40 40q72 64 120 424l56 88q40 0 72 -88q0 -96 -96 -376l-96 -408l-112 -288q64 -56 184 -56q96 0 200 80l16 -40q-96 -128 -272 -128h-8q-48 0 -176 64l-112 -104l-32 -16q-96 16 -96 64v56z" />
<glyph unicode="m" horiz-adv-x="832" d="M0 -24v64l216 736h24l40 -40q56 64 112 64l72 -176l88 112h32q56 0 64 -304l-16 -88h40q40 64 80 64l40 -112v-16q-40 -128 -88 -176q-136 0 -168 328h-24q-104 -376 -144 -376q-88 64 -88 240l48 176v64q-128 -120 -192 -584q-48 -112 -88 -112z" />
<glyph unicode="n" horiz-adv-x="656" d="M0 40v64l168 544l176 88h32q72 -72 72 -232l-16 -232h16l72 32l32 -88v-176q-16 -80 -88 -80q-152 96 -152 368v88h-16q-80 -120 -144 -488q0 -88 -32 -88h-48q-24 0 -72 200z" />
<glyph unicode="o" horiz-adv-x="872" d="M0 120q64 424 216 616l64 40l88 -40l144 56q48 0 120 -176v-72q-288 -600 -424 -664l-32 -40q-176 48 -176 280zM96 48h32q136 0 360 512l-40 40l-200 -88q-48 -48 -136 -336z" />
<glyph unicode="p" horiz-adv-x="776" d="M-136 -232q280 920 488 920q144 112 256 112q144 -96 144 -136l-40 -72l40 -72q0 -272 -280 -400q0 -48 -288 -96q-120 -232 -136 -352l-24 -16h-32q-128 48 -128 112zM224 160h24q160 0 320 296l24 64l-24 32l24 16v8l-24 80q-104 0 -280 -384z" />
<glyph unicode="q" horiz-adv-x="832" d="M-24 240q104 368 328 520q240 88 304 88q40 0 112 -96l-16 -16l40 -120l-240 -432q-88 -96 -176 -520l16 -16h24q168 336 216 360l24 -32q-200 -448 -264 -448h-32q-32 0 -56 88q32 264 96 472l-8 8l-88 -48h-64q-144 0 -200 144zM80 224q0 -48 88 -72q216 0 360 344 q104 128 104 224l-16 8l-64 -8h-32q0 -40 -80 -56q0 -56 -72 -56v-40l8 -80l-8 -8h-64q-40 0 -48 72h-40q-136 -272 -136 -328z" />
<glyph unicode="r" horiz-adv-x="648" d="M56 80q160 240 160 472v48q0 80 -96 80l-64 64v24q16 56 88 56q96 0 192 -208v-16h24l176 136h8q64 -40 64 -104q-80 -120 -184 -208q-64 -72 -168 -368l-64 -104h-64q-72 56 -72 128z" />
<glyph unicode="s" horiz-adv-x="688" d="M0 -8l40 24q0 -16 56 -40q256 72 256 136q-144 224 -144 392q0 200 160 320h56q80 0 208 -176q-64 -64 -112 -64l-32 80h-24q-112 0 -112 -248q0 -184 168 -376v-8q0 -64 -112 -64q0 -64 -240 -128h-16q-112 0 -152 152z" />
<glyph unicode="t" horiz-adv-x="704" d="M-232 320v8q104 56 304 112q240 208 336 400l56 56h40l56 -72v-16l-112 -80q-48 -112 -136 -200v-48l288 88l40 -56q0 -40 -144 -72l-88 -56v-16q32 -40 32 -72q0 -128 -104 -264q0 -32 -120 -136h-40q-120 80 -120 160l48 216l-24 8q-112 -40 -152 -120q-16 -48 -72 -48 l-8 8v32l120 168l-8 8q-32 0 -72 -48l-40 -16h-16zM136 32l16 -24h16q152 40 192 312l-40 16q-144 0 -144 -112l-40 -128v-64z" />
<glyph unicode="u" horiz-adv-x="736" d="M0 -8v40q48 688 104 688h24q96 -80 96 -104q-80 -168 -112 -560h16q96 56 280 616q24 88 48 88q112 -24 112 -104l-48 -88q0 -216 72 -216q48 -32 56 -56v-80q0 -24 -72 -40l24 -88q-48 -56 -88 -56h-8l-80 72l-72 -144q-72 0 -208 -104l-32 -16q-32 0 -112 152z" />
<glyph unicode="v" horiz-adv-x="704" d="M0 200q136 328 208 368h72q96 -64 96 -136l-56 -112l40 -272q64 0 208 480l-16 8l16 80v16l-32 112v16l32 32h40q72 0 96 -280q-176 -672 -264 -672h-56q-152 96 -152 368v16l-40 16l-136 -88z" />
<glyph unicode="w" horiz-adv-x="832" d="M0 192v224q8 240 64 240q88 0 152 -128v-56l-80 -112v-256h16q80 80 240 688l16 16h8q104 -64 128 -152q-48 -160 -48 -408v-32l32 -152q104 0 160 312l-16 80v16l16 16l-32 112v40q8 112 40 112q80 0 128 -280l-32 -200l16 -56q0 -288 -232 -352q-80 0 -216 256h-16 q-32 0 -32 -168q-48 -112 -128 -112h-48q-136 104 -136 352z" />
<glyph unicode="x" horiz-adv-x="800" d="M0 472q80 208 208 320h32q56 0 152 -120q96 152 152 152q104 -32 104 -136v-16q-248 -272 -256 -496l88 -32h40l224 80h16l40 -48v-16q0 -88 -312 -184l-176 64l-112 -200h-16l-88 88v16q184 504 184 648h-16q-96 -40 -96 -200q0 -88 -56 -88q-112 64 -112 168z" />
<glyph unicode="y" horiz-adv-x="696" d="M-168 -184q104 160 304 232l168 56q-136 56 -216 320q-96 0 -120 40v24q24 88 88 88q168 -48 168 -208q32 0 48 -128l16 -8q0 -24 24 -24q168 0 304 408q120 200 216 224l72 -40v-32q0 -32 -88 -104l-64 -112q0 -48 -72 -120q0 -112 -96 -288l16 -16l-16 -40l16 -40 l-32 -88l16 -120l-24 -64l8 -24q0 -120 -264 -192h-48q-184 0 -360 152q-40 0 -64 104zM-40 -208v-8q0 -136 280 -168h16q224 48 224 232v48l16 8l-16 8l16 136v120l-64 -40v-8l32 -24q-344 -72 -504 -304z" />
<glyph unicode="z" horiz-adv-x="824" d="M0 64q312 224 312 288l-16 96l16 24h16q48 0 104 -64l72 80v48h-56l-240 -48q-24 0 -88 144v40q0 64 384 64q240 -64 240 -264q-104 -64 -176 -208v-16l24 -120l-24 -40h24v-24l16 24h32l48 -64v-56q-40 -104 -120 -104h-48l-72 24l-88 -24h-16l-64 24l-104 -48 q-176 88 -176 224zM376 104l24 -40h32l72 24v-24l48 24v16q-72 0 -136 64z" />
<glyph unicode="{" horiz-adv-x="808" d="M0 512v24q200 200 200 392v16l-40 144v40q40 112 152 176h8q48 0 96 -64v-8q0 -24 -64 -32v8q-104 -56 -104 -144l40 -152q-24 -48 -48 -200q-48 -40 -64 -96q-24 0 -24 -40l-24 -24v-24q104 -88 104 -192l8 -48q0 -40 -112 -280q24 -96 72 -96q88 -16 88 -32v-8 q0 -8 -48 -32q-184 48 -184 184l96 288q0 144 -80 144q-32 0 -72 56z" />
<glyph unicode="|" horiz-adv-x="1152" d="M0 72l112 1040l32 120q40 0 72 -168v-64q-48 -112 -88 -496v-24l8 -24q-24 -552 -72 -616q-64 40 -64 232z" />
<glyph unicode="}" horiz-adv-x="808" d="M0 -64l8 8v8l80 -40q160 0 208 304v72l-56 176l112 80v8q-112 96 -112 136q80 312 80 376v40q-24 40 -80 40l-64 -8l-40 48v16q0 32 112 32q104 -40 160 -152v-16l-48 -272l-8 -32l-8 -8q-16 -16 -16 -64h-8q0 -24 160 -168v-8q0 -24 -136 -80v-24l40 -192l-104 -296 q-56 -56 -136 -80l-56 16l-24 -8l-64 72v16z" />
<glyph unicode="~" horiz-adv-x="1064" d="M176 1080v8q16 64 152 104l72 8q32 0 160 -120l32 -8q80 24 168 96h8l16 -24v-8l-56 -104l-120 -48q-48 0 -192 128q-144 -48 -144 -96l-40 -8q-56 24 -56 72z" />
<glyph unicode="&#xa4;" d="M528 272l104 -104l128 128q120 -88 272 -88q136 0 264 88l120 -128l104 104l-120 128q80 128 80 264t-80 264l120 136l-104 104l-120 -128q-152 96 -272 88q-112 8 -264 -88l-128 128l-104 -104l128 -128q-96 -128 -88 -272q0 -144 88 -264zM720 664q32 288 304 312 q280 -32 312 -312q-24 -272 -312 -304q-280 24 -304 304z" />
<glyph unicode="&#xa7;" d="M632 856q0 -232 304 -664q184 -256 184 -336q-8 -88 -104 -96q-56 0 -136 80q-64 64 -112 64q-80 -16 -96 -96q24 -136 232 -152q456 48 504 456q0 248 -312 720q-176 264 -176 336q8 80 96 88q56 0 144 -80q80 -72 120 -72q88 16 96 112q-24 120 -264 136 q-440 -56 -480 -496zM744 912q0 136 88 216q16 -160 240 -520q232 -376 232 -528q0 -112 -96 -224h-8q16 144 -216 512q-240 384 -240 544z" />
<glyph unicode="&#xa8;" d="M704 1144q16 -104 120 -120q120 8 128 120q-8 112 -128 120q-112 -8 -120 -120zM1096 1144q8 -112 128 -120q112 16 120 120q-8 112 -120 120q-120 -8 -128 -120z" />
<glyph unicode="&#xad;" horiz-adv-x="1360" d="M56 536v24q0 16 320 24l16 -8l624 16l96 -48v-24q0 -8 -176 -24l-160 16l-200 -8l-24 8h-16l-80 -8l-80 8l-184 -8h-40z" />
<glyph unicode="&#xb0;" d="M56 960q32 -312 352 -344q312 32 344 344q-32 312 -344 344q-320 -32 -352 -344zM192 960q16 200 216 216q200 -16 216 -216q-16 -200 -216 -216q-200 16 -216 216z" />
<glyph unicode="&#xb1;" d="M480 -32h1088v144h-1088v-144zM480 760h464v-464h160v464h464v160h-464v464h-160v-464h-464v-160z" />
<glyph unicode="&#xb7;" d="M824 720q8 -184 200 -192h8q184 16 200 192v16q-16 184 -200 200h-8q-184 -16 -200 -208v-8z" />
<glyph unicode="&#xd7;" d="M520 272l112 -112l392 392l400 -392l104 112l-392 392l392 400l-104 112l-400 -400l-400 400l-104 -112l392 -400z" />
<glyph unicode="&#xe0;" d="M496 368q16 -360 328 -376q152 0 336 152v-152h48l344 72v64q-40 -8 -64 -8q-88 -16 -80 152v632l-248 -40v-32q-88 24 -184 24q-440 -24 -480 -488zM688 1368l360 -392h120l-152 392h-328zM744 472q8 296 216 304q88 8 200 -88v-456q-104 -104 -184 -104 q-224 16 -232 344z" />
<glyph unicode="&#xe1;" d="M496 368q16 -360 328 -376q152 0 336 152v-152h48l344 72v64q-40 -8 -64 -8q-88 -16 -80 152v632l-248 -40v-32q-88 24 -184 24q-440 -24 -480 -488zM744 472q8 296 216 304q88 8 200 -88v-456q-104 -104 -184 -104q-224 16 -232 344zM824 976h336l152 392h-120z" />
<glyph unicode="&#xe8;" d="M608 400q16 -392 376 -408q256 8 440 248l-48 40q-152 -160 -248 -152q-216 24 -256 304h568v56q-32 16 -48 88q-24 120 -88 184q-96 96 -256 96q-408 -32 -440 -456zM688 1360l360 -384h120l-152 384h-328zM864 504q-8 224 144 256q136 -8 152 -256h-296z" />
<glyph unicode="&#xe9;" d="M608 400q16 -392 376 -408q256 8 440 248l-48 40q-152 -160 -248 -152q-216 24 -256 304h568v56q-32 16 -48 88q-24 120 -88 184q-96 96 -256 96q-408 -32 -440 -456zM848 976h328l152 392h-112zM864 504q-8 224 144 256q136 -8 152 -256h-296z" />
<glyph unicode="&#xea;" d="M608 400q16 -392 376 -408q256 8 440 248l-48 40q-152 -160 -248 -152q-216 24 -256 304h568v56q-32 16 -48 88q-24 120 -88 184q-96 96 -256 96q-408 -32 -440 -456zM696 976h160l152 216l168 -216h160l-176 384h-304zM864 504q-8 224 144 256q136 -8 152 -256h-296z " />
<glyph unicode="&#xec;" d="M736 1360l368 -384h120l-152 384h-336zM800 0h512v64q-128 0 -128 128v688h-40l-344 -120v-48l64 -24q80 -16 72 -88v-392q8 -152 -120 -144h-16v-64z" />
<glyph unicode="&#xed;" d="M728 0h512v64q-120 0 -120 128v688h-40l-352 -120v-48l72 -24q80 -16 72 -88v-392q8 -152 -120 -144h-24v-64zM832 976h328l152 392h-112z" />
<glyph unicode="&#xf2;" d="M528 408q24 -400 480 -416q480 24 512 440q-32 400 -480 424q-480 -32 -512 -448zM696 1360l360 -384h120l-152 384h-328zM792 528q8 232 192 240q248 -24 264 -448q0 -248 -184 -256q-240 24 -272 464z" />
<glyph unicode="&#xf3;" d="M528 408q24 -400 480 -416q480 24 512 440q-32 400 -480 424q-480 -32 -512 -448zM792 528q8 232 192 240q248 -24 264 -448q0 -248 -184 -256q-240 24 -272 464zM856 976h328l152 392h-120z" />
<glyph unicode="&#xf7;" d="M480 592h1088v152h-1088v-152zM928 256q8 -88 96 -96q88 8 96 96q-8 88 -96 96q-88 -8 -96 -96zM928 1080q8 -88 96 -96q88 8 96 96q-8 88 -96 96q-88 -8 -96 -96z" />
<glyph unicode="&#xf9;" d="M496 736l48 -24q48 -8 40 -112v-344q8 -256 224 -264q120 -8 368 152v-152h40l328 64v64q-32 -8 -56 -8q-72 -16 -64 120v624h-40l-376 -72v-48l96 -32q80 -16 72 -120v-368q-136 -80 -208 -80q-128 8 -136 200v520h-40l-296 -72v-48zM696 1360l360 -384h120l-152 384 h-328z" />
<glyph unicode="&#xfa;" d="M496 736l48 -24q48 -8 40 -112v-344q8 -256 224 -264q120 -8 368 152v-152h40l328 64v64q-32 -8 -56 -8q-72 -16 -64 120v624h-40l-376 -72v-48l96 -32q80 -16 72 -120v-368q-136 -80 -208 -80q-128 8 -136 200v520h-40l-296 -72v-48zM856 976h328l152 392h-120z" />
<glyph unicode="&#xfc;" d="M496 736l48 -24q48 -8 40 -112v-344q8 -256 224 -264q120 -8 368 152v-152h40l328 64v64q-32 -8 -56 -8q-72 -16 -64 120v624h-40l-376 -72v-48l96 -32q80 -16 72 -120v-368q-136 -80 -208 -80q-128 8 -136 200v520h-40l-296 -72v-48zM696 1144q8 -112 128 -120 q112 16 120 120q-8 112 -120 120q-120 -8 -128 -120zM1096 1144q16 -104 120 -120q120 8 128 120q-8 112 -128 120q-112 -8 -120 -120z" />
<glyph unicode="&#x2000;" horiz-adv-x="816" />
<glyph unicode="&#x2001;" horiz-adv-x="1632" />
<glyph unicode="&#x2002;" horiz-adv-x="816" />
<glyph unicode="&#x2003;" horiz-adv-x="1632" />
<glyph unicode="&#x2004;" horiz-adv-x="544" />
<glyph unicode="&#x2005;" horiz-adv-x="408" />
<glyph unicode="&#x2006;" horiz-adv-x="272" />
<glyph unicode="&#x2007;" horiz-adv-x="272" />
<glyph unicode="&#x2008;" horiz-adv-x="204" />
<glyph unicode="&#x2009;" horiz-adv-x="326" />
<glyph unicode="&#x200a;" horiz-adv-x="90" />
<glyph unicode="&#x2010;" horiz-adv-x="1360" d="M56 536v24q0 16 320 24l16 -8l624 16l96 -48v-24q0 -8 -176 -24l-160 16l-200 -8l-24 8h-16l-80 -8l-80 8l-184 -8h-40z" />
<glyph unicode="&#x2011;" horiz-adv-x="1360" d="M56 536v24q0 16 320 24l16 -8l624 16l96 -48v-24q0 -8 -176 -24l-160 16l-200 -8l-24 8h-16l-80 -8l-80 8l-184 -8h-40z" />
<glyph unicode="&#x2012;" horiz-adv-x="1360" d="M56 536v24q0 16 320 24l16 -8l624 16l96 -48v-24q0 -8 -176 -24l-160 16l-200 -8l-24 8h-16l-80 -8l-80 8l-184 -8h-40z" />
<glyph unicode="&#x2013;" horiz-adv-x="1328" d="M56 536v24q0 16 310 24l16 -8l605 16l93 -48v-24q0 -8 -171 -24l-155 16l-194 -8l-23 8h-16l-77 -8l-78 8l-178 -8h-39z" />
<glyph unicode="&#x2014;" d="M0 656h2048v88h-2048v-88z" />
<glyph unicode="&#x2018;" d="M1376 1216q16 -176 168 -200h24q128 16 128 136q0 72 -56 112q-48 40 -160 56q32 184 192 272v24q-144 -48 -232 -184q-64 -104 -64 -216z" />
<glyph unicode="&#x2019;" d="M352 1472q0 -48 64 -112q40 -24 136 -40h8q-24 -176 -192 -280v-24q120 40 192 120q112 128 112 264v32q0 72 -40 128q-48 64 -136 56q-128 -8 -144 -136v-8z" />
<glyph unicode="&#x201c;" d="M1128 1224q16 -168 176 -192h8q136 0 136 128v8q0 152 -208 160q24 152 192 280v24q-144 -48 -232 -184q-72 -104 -72 -216v-8zM1624 1224q16 -168 176 -192h8q136 0 136 128v8q0 152 -208 160q24 152 192 280v24q-144 -48 -232 -184q-72 -104 -72 -216v-8z" />
<glyph unicode="&#x201d;" d="M120 1472q8 -72 88 -128q56 -24 128 -24q-56 -200 -192 -280v-24q144 48 232 176q56 112 64 192v40q0 64 -32 120q-40 64 -136 72h-16q-120 -8 -136 -128v-16zM592 1472q8 -80 88 -120q40 -24 128 -24q-48 -200 -192 -280v-24q144 40 232 176q56 96 64 192v32 q0 80 -24 120q-40 64 -136 80h-24q-120 -24 -136 -128v-24z" />
<glyph unicode="&#x2026;" d="M192 704q8 -128 136 -136h8q120 8 128 136v8q-16 128 -128 136h-8q-120 -16 -136 -136v-8zM880 704q8 -128 136 -136h8q120 8 128 136v8q-16 128 -128 136h-8q-120 -16 -136 -136v-8zM1584 704q8 -128 136 -136h8q120 8 128 136v8q-16 128 -128 136h-8 q-120 -16 -136 -136v-8z" />
<glyph unicode="&#x202f;" horiz-adv-x="326" />
<glyph unicode="&#x205f;" horiz-adv-x="408" />
<glyph unicode="&#x25fc;" horiz-adv-x="840" d="M0 0v840h840v-840h-840z" />
</font>
</defs>
</svg>
